{"title":"Battle of the Damned (1969)","uid":8261522,"size":904978025,"categoryP":"video","categoryS":"movies","magnet":"?xt=urn:btih:216180e5dd25ef699758d38c2e9d26826583eae9&amp;dn=Battle+of+the+Damned+%281969%29&amp;tr=udp%3A%2F%2Ftracker.openbittorrent.com%3A80&amp;tr=udp%3A%2F%2Fopen.demonii.com%3A1337&amp;tr=udp%3A%2F%2Ftracker.coppersurfer.tk%3A6969&amp;tr=udp%3A%2F%2Fexodus.desync.com%3A6969","seeders":0,"leechers":2,"uploader":"RadioResearch","files":3,"time":1363392625,"description":"*******************************************************************************\n                          Battle of the Damned (1969)\n*******************************************************************************\n\n-------------------------------------------------------------------------------\n                              General Information\n-------------------------------------------------------------------------------\nType.................: Movie\n\n\n\nVideo Format.........: AVI\nVideo Bitrate........: 1377\nResolution...........: 352 x 264\nColor................: 8 bit\nFPS..................: 25.000\nSource...............: DVD 4x3\nOriginal Format......: NTSC\nGenre................: War\nIMDb Rating..........: 4.3\nMovie Information....: http://www.imdb.com/title/tt0064865/\n\n-------------------------------------------------------------------------------\n                               Post Information\n-------------------------------------------------------------------------------\nPosted by............: RadioResearch\nPosted on............: 3/16/2013\n\n-------------------------------------------------------------------------------\n                                 Release Notes\n-------------------------------------------------------------------------------\nSEEDBOX SUPPORTED!\n\nORIGINAL TITLE Quella dannata pattuglia\n\nEnglish with (sparse) Greek subtitles.  DVDRip, but DVD is obviously made from a \nvideo (processed) which was in turn made from an original 35mm print.  \nOccasional video glitch usually when a subtitle appears.  V=9 A=10.\n\nItalian made ( dubed into English) WW2 movie.The plot is a simple combination of \ntwo decent American war films, namely Play Dirty, and also Tobruk. A small band \nof misfit American commandos are assigned to head across the North African \ndesert to blow up a huge German fuel depot. Why this fuel depot is important is \nexplained in an overly long introduction, comprised of narrated black and white \nstock footage.\n\nThat introduction is just a time-killer, but once it's out of the way, the fun \nbegins.  Montero pays close attention to getting the details of the time period \nand setting correct, and this adds a great deal to the realistic feel and tone \nof the film. The Germans are properly armed and wear the right kind of uniforms, \nas do the American commandos. The exteriors, shot in Egypt, make the vast Sahara \ndesert look appropriately bleak.\n\nThis is another of the lost Macaroni Combat films.  Very rare, unless you want \nit solely in Italian (someone put it up a few weeks ago).  This is in English \nand the Greek computer-generated subtitles don;t really get in the way much.  \nHad a hard time laying my hands on this as well as a few others I'll be posting.\n\nEnjoy!\n\nRadioResearch\n\nGeneral\nComplete name                            : G:Battle of the Damned \n(1969)Movie_Title1.avi\nFormat                                   : AVI\nFormat/Info                              : Audio Video Interleave\nFile size                                : 863 MiB\nDuration                                 : 1h 27mn\nOverall bit rate                         : 1 377 Kbps\nMovie name                               : Movie\nWriting application                      : MEncoder 5.0\nWriting library                          : [= DigiArty videodll! =]\n\nVideo\nID                                       : 0\nFormat                                   : MPEG-4 Visual\nFormat profile                           : Simple@L1\nFormat settings, BVOP                    : No\nFormat settings, QPel                    : No\nFormat settings, GMC                     : No warppoints\nFormat settings, Matrix                  : Default (H.263)\nCodec ID                                 : DX50\nCodec ID/Hint                            : DivX 5\nDuration                                 : 1h 27mn\nBit rate                                 : 1 116 Kbps\nWidth                                    : 352 pixels\nHeight                                   : 264 pixels\nDisplay aspect ratio                     : 4:3\nFrame rate                               : 25.000 fps\nColor space                              : YUV\nChroma subsampling                       : 4:2:0\nBit depth                                : 8 bits\nScan type                                : Progressive\nCompression mode                         : Lossy\nBits/(Pixel*Frame)                       : 0.480\nStream size                              : 699 MiB (81%)\nWriting library                          : Lavc54.71.100\n\nAudio\nID                                       : 1\nFormat                                   : AC-3\nFormat/Info                              : Audio Coding 3\nMode extension                           : CM (complete main)\nFormat settings, Endianness              : Big\nCodec ID                                 : 2000\nDuration                                 : 1h 27mn\nBit rate mode                            : Constant\nBit rate                                 : 256 Kbps\nChannel(s)                               : 2 channels\nChannel positions                        : Front: L R\nSampling rate                            : 48.0 KHz\nBit depth                                : 16 bits\nCompression mode                         : Lossy\nDelay relative to video                  : 31ms\nStream size                              : 160 MiB (19%)\nAlignment                                : Split accross interleaves\nInterleave, duration                     : 500 ms (12.50 video frames)\nInterleave, preload duration             : 500 ms\n\n\n\n\n-------------------------------------------------------------------------------\nGenerated with Cool NFO Creator - http://fly.to/coolbeans\n-------------------------------------------------------------------------------\n","torrent":{"xt":"urn:btih:216180e5dd25ef699758d38c2e9d26826583eae9","amp;dn":"Battle+of+the+Damned+%281969%29","amp;tr":["udp%3A%2F%2Ftracker.openbittorrent.com%3A80","udp%3A%2F%2Fopen.demonii.com%3A1337","udp%3A%2F%2Ftracker.coppersurfer.tk%3A6969","udp%3A%2F%2Fexodus.desync.com%3A6969"],"infoHash":"216180e5dd25ef699758d38c2e9d26826583eae9","infoHashBuffer":{"type":"Buffer","data":[33,97,128,229,221,37,239,105,151,88,211,140,46,157,38,130,101,131,234,233]},"announce":[],"urlList":[]}}